<svg width="24" height="25" viewBox="0 0 24 25" fill="none" xmlns="http://www.w3.org/2000/svg">
<path d="M14 16.4194C14 14.5338 14 13.591 14.5858 13.0052C15.1716 12.4194 16.1144 12.4194 18 12.4194C19.8856 12.4194 20.8284 12.4194 21.4142 13.0052C22 13.591 22 14.5338 22 16.4194C22 18.305 22 19.2478 21.4142 19.8336C20.8284 20.4194 19.8856 20.4194 18 20.4194C16.1144 20.4194 15.1716 20.4194 14.5858 19.8336C14 19.2478 14 18.305 14 16.4194Z" stroke="#0C0C0C" stroke-width="1.5"/>
<path d="M14 16.4194V12.282C14 8.61512 16.5157 5.50527 20 4.41943" stroke="#0C0C0C" stroke-width="1.5" stroke-linecap="round"/>
<path d="M2 16.4194C2 14.5338 2 13.591 2.58579 13.0052C3.17157 12.4194 4.11438 12.4194 6 12.4194C7.88562 12.4194 8.82843 12.4194 9.41421 13.0052C10 13.591 10 14.5338 10 16.4194C10 18.305 10 19.2478 9.41421 19.8336C8.82843 20.4194 7.88562 20.4194 6 20.4194C4.11438 20.4194 3.17157 20.4194 2.58579 19.8336C2 19.2478 2 18.305 2 16.4194Z" stroke="#0C0C0C" stroke-width="1.5"/>
<path d="M2 16.4194V12.282C2 8.61512 4.51571 5.50527 8 4.41943" stroke="#0C0C0C" stroke-width="1.5" stroke-linecap="round"/>
</svg>
