<svg width="24" height="24" viewBox="0 0 24 24" fill="none" xmlns="http://www.w3.org/2000/svg">
<g clip-path="url(#clip0_4248_2546)">
<path d="M6.08588 23.9151C5.15758 23.9047 4.23801 23.7344 3.36753 23.4118C2.73187 23.1768 2.15676 22.8027 1.68424 22.3169C1.19712 21.8454 0.822514 21.2701 0.588235 20.6339C0.265824 19.7634 0.0958076 18.8439 0.0856471 17.9158C0.0143529 16.3727 0 15.9099 0 12C0 8.09012 0.0157647 7.62894 0.0849412 6.08471C0.0963347 5.15689 0.26656 4.23788 0.588235 3.36753C0.823654 2.73176 1.19773 2.15642 1.68329 1.68329C2.15523 1.19662 2.73061 0.822358 3.36682 0.588235C4.2373 0.265557 5.15687 0.0953008 6.08518 0.0849412C7.62871 0.0143529 8.09224 0 12 0C15.9078 0 16.3711 0.0157647 17.9153 0.0849412C18.8433 0.0962542 19.7626 0.266481 20.6332 0.588235C21.2691 0.822667 21.8443 1.1968 22.3165 1.68306C22.8029 2.15535 23.1772 2.73073 23.4118 3.36682C23.7345 4.23729 23.9049 5.15686 23.9153 6.08518C23.9859 7.62941 24.0002 8.09176 24.0002 12.0005C24.0002 15.9092 23.9859 16.3715 23.9153 17.9158C23.9041 18.8439 23.7338 19.7633 23.4118 20.6339C23.1682 21.2652 22.7951 21.8386 22.3166 22.317C21.838 22.7954 21.2646 23.1683 20.6332 23.4118C19.7627 23.7345 18.8431 23.9049 17.9148 23.9153C16.372 23.9859 15.9082 24.0002 11.9995 24.0002C8.09082 24.0002 7.62847 23.9866 6.08565 23.9153" fill="url(#paint0_radial_4248_2546)"/>
<path d="M6.08588 23.9151C5.15758 23.9047 4.23801 23.7344 3.36753 23.4118C2.73187 23.1768 2.15676 22.8027 1.68424 22.3169C1.19712 21.8454 0.822514 21.2701 0.588235 20.6339C0.265824 19.7634 0.0958076 18.8439 0.0856471 17.9158C0.0143529 16.3727 0 15.9099 0 12C0 8.09012 0.0157647 7.62894 0.0849412 6.08471C0.0963347 5.15689 0.26656 4.23788 0.588235 3.36753C0.823654 2.73176 1.19773 2.15642 1.68329 1.68329C2.15523 1.19662 2.73061 0.822358 3.36682 0.588235C4.2373 0.265557 5.15687 0.0953008 6.08518 0.0849412C7.62871 0.0143529 8.09224 0 12 0C15.9078 0 16.3711 0.0157647 17.9153 0.0849412C18.8433 0.0962542 19.7626 0.266481 20.6332 0.588235C21.2691 0.822667 21.8443 1.1968 22.3165 1.68306C22.8029 2.15535 23.1772 2.73073 23.4118 3.36682C23.7345 4.23729 23.9049 5.15686 23.9153 6.08518C23.9859 7.62941 24.0002 8.09176 24.0002 12.0005C24.0002 15.9092 23.9859 16.3715 23.9153 17.9158C23.9041 18.8439 23.7338 19.7633 23.4118 20.6339C23.1682 21.2652 22.7951 21.8386 22.3166 22.317C21.838 22.7954 21.2646 23.1683 20.6332 23.4118C19.7627 23.7345 18.8431 23.9049 17.9148 23.9153C16.372 23.9859 15.9082 24.0002 11.9995 24.0002C8.09082 24.0002 7.62847 23.9866 6.08565 23.9153" fill="url(#paint1_radial_4248_2546)"/>
<path d="M9.05342 12.0513C9.05347 11.4635 9.22782 10.8889 9.55444 10.4001C9.88106 9.91141 10.3453 9.53051 10.8884 9.30562C11.4314 9.08073 12.029 9.02194 12.6055 9.13668C13.1821 9.25142 13.7116 9.53453 14.1272 9.95023C14.5428 10.3659 14.8258 10.8955 14.9404 11.4721C15.055 12.0486 14.9961 12.6462 14.771 13.1892C14.546 13.7323 14.165 14.1964 13.6762 14.5229C13.1874 14.8494 12.6128 15.0236 12.0249 15.0235C11.2368 15.0234 10.4809 14.7102 9.92364 14.1528C9.36638 13.5954 9.05336 12.8395 9.05342 12.0513ZM7.44659 12.0513C7.44659 12.9568 7.71511 13.842 8.21819 14.5949C8.72126 15.3478 9.4363 15.9346 10.2729 16.2811C11.1095 16.6276 12.03 16.7183 12.9181 16.5417C13.8063 16.365 14.622 15.9289 15.2623 15.2887C15.9026 14.6484 16.3387 13.8326 16.5153 12.9445C16.692 12.0564 16.6013 11.1358 16.2548 10.2992C15.9083 9.46262 15.3214 8.74758 14.5685 8.24451C13.8156 7.74143 12.9305 7.47291 12.0249 7.47291C11.4237 7.47288 10.8283 7.59129 10.2729 7.82136C9.71737 8.05143 9.21264 8.38867 8.78749 8.81381C8.36235 9.23896 8.02511 9.74369 7.79504 10.2992C7.56497 10.8547 7.44656 11.45 7.44659 12.0513ZM15.7146 7.2915C15.7145 7.50311 15.7772 7.70999 15.8946 7.88598C16.0121 8.06197 16.1792 8.19917 16.3746 8.28024C16.5701 8.3613 16.7852 8.38259 16.9927 8.34139C17.2003 8.3002 17.391 8.19839 17.5407 8.04883C17.6904 7.89927 17.7923 7.70868 17.8337 7.50116C17.8751 7.29364 17.854 7.07852 17.7731 6.88298C17.6922 6.68745 17.5552 6.5203 17.3793 6.40267C17.2034 6.28503 16.9965 6.22219 16.7849 6.2221C16.5013 6.22222 16.2293 6.33492 16.0287 6.53543C15.8281 6.73594 15.7153 7.00787 15.7151 7.2915M8.4233 19.3089C7.85792 19.3027 7.29782 19.1992 6.76753 19.003C6.38296 18.8548 6.03369 18.6277 5.7422 18.3363C5.45071 18.045 5.22345 17.6958 5.07506 17.3113C4.87877 16.781 4.7753 16.2209 4.76918 15.6555C4.72589 14.7157 4.71742 14.4334 4.71742 12.0524C4.71742 9.67151 4.72683 9.38986 4.76918 8.44915C4.77604 7.88383 4.87949 7.32384 5.07506 6.79339C5.22328 6.4087 5.45047 6.05934 5.74198 5.76783C6.03348 5.47632 6.38284 5.24913 6.76753 5.10092C7.29779 4.90463 7.85791 4.80116 8.4233 4.79504C9.36306 4.75174 9.64542 4.74327 12.0254 4.74327C14.4054 4.74327 14.688 4.75245 15.6287 4.79527C16.194 4.80213 16.754 4.90558 17.2845 5.10115C17.6692 5.24938 18.0185 5.47657 18.31 5.76808C18.6015 6.05959 18.8287 6.40894 18.9769 6.79362C19.1732 7.32389 19.2767 7.884 19.2828 8.44939C19.3261 9.39057 19.3346 9.67151 19.3346 12.0527C19.3346 14.4339 19.3259 14.7153 19.2828 15.656C19.2762 16.2213 19.1728 16.7814 18.9769 17.3117C18.8286 17.6962 18.6013 18.0454 18.3098 18.3368C18.0183 18.6282 17.669 18.8553 17.2845 19.0035C16.7542 19.1998 16.1941 19.3033 15.6287 19.3094C14.6889 19.3527 14.4066 19.3612 12.0254 19.3612C9.64424 19.3612 9.36283 19.3524 8.4233 19.3094M8.34942 3.18963C7.60961 3.20417 6.87765 3.34419 6.18471 3.60374C5.59236 3.83277 5.0544 4.18305 4.60533 4.63212C4.15625 5.0812 3.80597 5.61915 3.57694 6.2115C3.31744 6.90445 3.17741 7.63641 3.16283 8.37621C3.11883 9.3268 3.10895 9.6308 3.10895 12.0522C3.10895 14.4736 3.11907 14.7774 3.16283 15.7282C3.17741 16.468 3.31743 17.2 3.57694 17.8929C3.80598 18.4853 4.15627 19.0232 4.60534 19.4723C5.05442 19.9214 5.59237 20.2716 6.18471 20.5007C6.87768 20.7601 7.60963 20.9001 8.34942 20.9148C9.30048 20.9581 9.604 20.9687 12.0254 20.9687C14.4468 20.9687 14.7506 20.9586 15.7014 20.9148C16.4412 20.9002 17.1732 20.7602 17.8661 20.5007C18.4585 20.2716 18.9964 19.9214 19.4455 19.4723C19.8946 19.0232 20.2448 18.4853 20.4739 17.8929C20.7337 17.2001 20.8738 16.4681 20.888 15.7282C20.9313 14.7769 20.9412 14.4736 20.9412 12.0522C20.9412 9.6308 20.9311 9.32704 20.888 8.37621C20.8735 7.63641 20.7334 6.90444 20.4739 6.2115C20.2449 5.61927 19.8947 5.08139 19.4457 4.63233C18.9968 4.18327 18.459 3.83293 17.8668 3.60374C17.1739 3.34403 16.4419 3.204 15.7021 3.18963C14.7513 3.1461 14.4475 3.13574 12.0266 3.13574C9.60565 3.13574 9.30118 3.14586 8.34989 3.18963" fill="white"/>
</g>
<defs>
<radialGradient id="paint0_radial_4248_2546" cx="0" cy="0" r="1" gradientUnits="userSpaceOnUse" gradientTransform="translate(1.55318 23.4744) scale(30.4711)">
<stop offset="0.09" stop-color="#FA8F21"/>
<stop offset="0.78" stop-color="#D82D7E"/>
</radialGradient>
<radialGradient id="paint1_radial_4248_2546" cx="0" cy="0" r="1" gradientUnits="userSpaceOnUse" gradientTransform="translate(16.624 22.7035) scale(26.8148)">
<stop offset="0.64" stop-color="#8C3AAA" stop-opacity="0"/>
<stop offset="1" stop-color="#8C3AAA"/>
</radialGradient>
<clipPath id="clip0_4248_2546">
<rect width="24" height="24" fill="white"/>
</clipPath>
</defs>
</svg>
