<svg width="24" height="20" viewBox="0 0 24 20" fill="none" xmlns="http://www.w3.org/2000/svg">
<g clip-path="url(#clip0_4085_9538)">
<mask id="path-1-inside-1_4085_9538" fill="white">
<path d="M4.36274 19.2354V18.0006C4.36274 17.5272 4.07455 17.2186 3.58059 17.2186C3.33365 17.2186 3.06609 17.3009 2.88084 17.5684C2.73684 17.342 2.53105 17.2186 2.22234 17.2186C2.01646 17.2186 1.81077 17.2803 1.64605 17.5067V17.2597H1.21387V19.2354H1.64605V18.1446C1.64605 17.7948 1.8313 17.6301 2.11949 17.6301C2.40749 17.6301 2.55168 17.8154 2.55168 18.1446V19.2354H2.98387V18.1446C2.98387 17.7948 3.18955 17.6301 3.45712 17.6301C3.7453 17.6301 3.8893 17.8154 3.8893 18.1446V19.2354H4.36274ZM10.7631 17.2597H10.0635V16.6629H9.6313V17.2597H9.24027V17.6507H9.63121V18.5563C9.63121 19.0091 9.81646 19.2766 10.3104 19.2766C10.4957 19.2766 10.7014 19.2149 10.8456 19.1326L10.722 18.7621C10.5985 18.8444 10.4545 18.865 10.3516 18.865C10.1458 18.865 10.0635 18.7415 10.0635 18.5357V17.6507H10.7631V17.2597ZM14.4265 17.2185C14.1796 17.2185 14.015 17.342 13.912 17.5067V17.2597H13.4798V19.2354H13.912V18.1241C13.912 17.7948 14.056 17.6096 14.3236 17.6096C14.4059 17.6096 14.5088 17.6302 14.5911 17.6508L14.7146 17.2392C14.6323 17.2186 14.5088 17.2186 14.4265 17.2186M8.8904 17.4244C8.68452 17.2803 8.39643 17.2187 8.08771 17.2187C7.59384 17.2187 7.26459 17.4656 7.26459 17.8566C7.26459 18.186 7.51152 18.3711 7.94371 18.4329L8.14949 18.4535C8.3759 18.4946 8.49937 18.5564 8.49937 18.6593C8.49937 18.8033 8.33474 18.9063 8.04656 18.9063C7.75837 18.9063 7.53205 18.8033 7.38796 18.7005L7.18218 19.0297C7.40859 19.1943 7.7173 19.2767 8.02593 19.2767C8.60221 19.2767 8.93156 19.0092 8.93156 18.6387C8.93156 18.2888 8.66399 18.1036 8.25234 18.0419L8.04656 18.0213C7.86131 18.0006 7.7173 17.9596 7.7173 17.8361C7.7173 17.692 7.8613 17.6097 8.08771 17.6097C8.33474 17.6097 8.58168 17.7125 8.70515 17.7743L8.8904 17.4244ZM20.3743 17.2187C20.1273 17.2187 19.9626 17.3421 19.8597 17.5068V17.2598H19.4275V19.2355H19.8597V18.1242C19.8597 17.7949 20.0038 17.6097 20.2713 17.6097C20.3537 17.6097 20.4566 17.6303 20.5389 17.6508L20.6624 17.2393C20.5801 17.2187 20.4566 17.2187 20.3743 17.2187ZM14.8587 18.2477C14.8587 18.8445 15.2703 19.2767 15.9083 19.2767C16.1964 19.2767 16.4022 19.215 16.608 19.0503L16.4022 18.7005C16.2376 18.8239 16.073 18.8856 15.8877 18.8856C15.5378 18.8856 15.2909 18.6387 15.2909 18.2477C15.2909 17.8773 15.5378 17.6302 15.8877 17.6097C16.073 17.6097 16.2376 17.6714 16.4022 17.7949L16.608 17.4451C16.4022 17.2803 16.1964 17.2187 15.9083 17.2187C15.2703 17.2187 14.8587 17.6508 14.8587 18.2477ZM18.8513 18.2477V17.2598H18.4191V17.5068C18.2751 17.3216 18.0693 17.2187 17.8017 17.2187C17.2461 17.2187 16.8139 17.6508 16.8139 18.2477C16.8139 18.8445 17.2461 19.2767 17.8017 19.2767C18.0898 19.2767 18.2957 19.1738 18.4191 18.9886V19.2355H18.8513V18.2477ZM17.2666 18.2477C17.2666 17.8978 17.493 17.6097 17.8634 17.6097C18.2133 17.6097 18.4603 17.8773 18.4603 18.2477C18.4603 18.5975 18.2133 18.8856 17.8634 18.8856C17.493 18.865 17.2666 18.5975 17.2666 18.2477ZM12.101 17.2187C11.5247 17.2187 11.113 17.6302 11.113 18.2477C11.113 18.8651 11.5246 19.2767 12.1215 19.2767C12.4096 19.2767 12.6978 19.1943 12.9242 19.0092L12.7183 18.7005C12.5537 18.8239 12.3479 18.9063 12.1421 18.9063C11.8746 18.9063 11.607 18.7828 11.5452 18.4328H13.0065V18.2683C13.0271 17.6302 12.6567 17.2187 12.101 17.2187ZM12.1009 17.5891C12.3683 17.5891 12.5537 17.7538 12.5947 18.0625H11.5657C11.6069 17.7949 11.7921 17.5891 12.1009 17.5891ZM22.8232 18.2477V16.4778H22.3911V17.5068C22.247 17.3216 22.0412 17.2187 21.7736 17.2187C21.218 17.2187 20.7858 17.6508 20.7858 18.2477C20.7858 18.8445 21.218 19.2767 21.7736 19.2767C22.0618 19.2767 22.2676 19.1738 22.3911 18.9886V19.2355H22.8232V18.2477ZM21.2386 18.2477C21.2386 17.8978 21.4649 17.6097 21.8354 17.6097C22.1853 17.6097 22.4322 17.8773 22.4322 18.2477C22.4322 18.5975 22.1853 18.8856 21.8354 18.8856C21.4649 18.865 21.2386 18.5975 21.2386 18.2477ZM6.79105 18.2477V17.2598H6.35887V17.5068C6.21477 17.3216 6.00899 17.2187 5.74143 17.2187C5.18577 17.2187 4.75359 17.6508 4.75359 18.2477C4.75359 18.8445 5.18577 19.2767 5.74143 19.2767C6.02962 19.2767 6.2354 19.1738 6.35887 18.9886V19.2355H6.79105V18.2477ZM5.18577 18.2477C5.18577 17.8978 5.41218 17.6097 5.78259 17.6097C6.13246 17.6097 6.37949 17.8773 6.37949 18.2477C6.37949 18.5975 6.13246 18.8856 5.78259 18.8856C5.41218 18.865 5.18577 18.5975 5.18577 18.2477Z"/>
</mask>
<path d="M4.36274 19.2354V18.0006C4.36274 17.5272 4.07455 17.2186 3.58059 17.2186C3.33365 17.2186 3.06609 17.3009 2.88084 17.5684C2.73684 17.342 2.53105 17.2186 2.22234 17.2186C2.01646 17.2186 1.81077 17.2803 1.64605 17.5067V17.2597H1.21387V19.2354H1.64605V18.1446C1.64605 17.7948 1.8313 17.6301 2.11949 17.6301C2.40749 17.6301 2.55168 17.8154 2.55168 18.1446V19.2354H2.98387V18.1446C2.98387 17.7948 3.18955 17.6301 3.45712 17.6301C3.7453 17.6301 3.8893 17.8154 3.8893 18.1446V19.2354H4.36274ZM10.7631 17.2597H10.0635V16.6629H9.6313V17.2597H9.24027V17.6507H9.63121V18.5563C9.63121 19.0091 9.81646 19.2766 10.3104 19.2766C10.4957 19.2766 10.7014 19.2149 10.8456 19.1326L10.722 18.7621C10.5985 18.8444 10.4545 18.865 10.3516 18.865C10.1458 18.865 10.0635 18.7415 10.0635 18.5357V17.6507H10.7631V17.2597ZM14.4265 17.2185C14.1796 17.2185 14.015 17.342 13.912 17.5067V17.2597H13.4798V19.2354H13.912V18.1241C13.912 17.7948 14.056 17.6096 14.3236 17.6096C14.4059 17.6096 14.5088 17.6302 14.5911 17.6508L14.7146 17.2392C14.6323 17.2186 14.5088 17.2186 14.4265 17.2186M8.8904 17.4244C8.68452 17.2803 8.39643 17.2187 8.08771 17.2187C7.59384 17.2187 7.26459 17.4656 7.26459 17.8566C7.26459 18.186 7.51152 18.3711 7.94371 18.4329L8.14949 18.4535C8.3759 18.4946 8.49937 18.5564 8.49937 18.6593C8.49937 18.8033 8.33474 18.9063 8.04656 18.9063C7.75837 18.9063 7.53205 18.8033 7.38796 18.7005L7.18218 19.0297C7.40859 19.1943 7.7173 19.2767 8.02593 19.2767C8.60221 19.2767 8.93156 19.0092 8.93156 18.6387C8.93156 18.2888 8.66399 18.1036 8.25234 18.0419L8.04656 18.0213C7.86131 18.0006 7.7173 17.9596 7.7173 17.8361C7.7173 17.692 7.8613 17.6097 8.08771 17.6097C8.33474 17.6097 8.58168 17.7125 8.70515 17.7743L8.8904 17.4244ZM20.3743 17.2187C20.1273 17.2187 19.9626 17.3421 19.8597 17.5068V17.2598H19.4275V19.2355H19.8597V18.1242C19.8597 17.7949 20.0038 17.6097 20.2713 17.6097C20.3537 17.6097 20.4566 17.6303 20.5389 17.6508L20.6624 17.2393C20.5801 17.2187 20.4566 17.2187 20.3743 17.2187ZM14.8587 18.2477C14.8587 18.8445 15.2703 19.2767 15.9083 19.2767C16.1964 19.2767 16.4022 19.215 16.608 19.0503L16.4022 18.7005C16.2376 18.8239 16.073 18.8856 15.8877 18.8856C15.5378 18.8856 15.2909 18.6387 15.2909 18.2477C15.2909 17.8773 15.5378 17.6302 15.8877 17.6097C16.073 17.6097 16.2376 17.6714 16.4022 17.7949L16.608 17.4451C16.4022 17.2803 16.1964 17.2187 15.9083 17.2187C15.2703 17.2187 14.8587 17.6508 14.8587 18.2477ZM18.8513 18.2477V17.2598H18.4191V17.5068C18.2751 17.3216 18.0693 17.2187 17.8017 17.2187C17.2461 17.2187 16.8139 17.6508 16.8139 18.2477C16.8139 18.8445 17.2461 19.2767 17.8017 19.2767C18.0898 19.2767 18.2957 19.1738 18.4191 18.9886V19.2355H18.8513V18.2477ZM17.2666 18.2477C17.2666 17.8978 17.493 17.6097 17.8634 17.6097C18.2133 17.6097 18.4603 17.8773 18.4603 18.2477C18.4603 18.5975 18.2133 18.8856 17.8634 18.8856C17.493 18.865 17.2666 18.5975 17.2666 18.2477ZM12.101 17.2187C11.5247 17.2187 11.113 17.6302 11.113 18.2477C11.113 18.8651 11.5246 19.2767 12.1215 19.2767C12.4096 19.2767 12.6978 19.1943 12.9242 19.0092L12.7183 18.7005C12.5537 18.8239 12.3479 18.9063 12.1421 18.9063C11.8746 18.9063 11.607 18.7828 11.5452 18.4328H13.0065V18.2683C13.0271 17.6302 12.6567 17.2187 12.101 17.2187ZM12.1009 17.5891C12.3683 17.5891 12.5537 17.7538 12.5947 18.0625H11.5657C11.6069 17.7949 11.7921 17.5891 12.1009 17.5891ZM22.8232 18.2477V16.4778H22.3911V17.5068C22.247 17.3216 22.0412 17.2187 21.7736 17.2187C21.218 17.2187 20.7858 17.6508 20.7858 18.2477C20.7858 18.8445 21.218 19.2767 21.7736 19.2767C22.0618 19.2767 22.2676 19.1738 22.3911 18.9886V19.2355H22.8232V18.2477ZM21.2386 18.2477C21.2386 17.8978 21.4649 17.6097 21.8354 17.6097C22.1853 17.6097 22.4322 17.8773 22.4322 18.2477C22.4322 18.5975 22.1853 18.8856 21.8354 18.8856C21.4649 18.865 21.2386 18.5975 21.2386 18.2477ZM6.79105 18.2477V17.2598H6.35887V17.5068C6.21477 17.3216 6.00899 17.2187 5.74143 17.2187C5.18577 17.2187 4.75359 17.6508 4.75359 18.2477C4.75359 18.8445 5.18577 19.2767 5.74143 19.2767C6.02962 19.2767 6.2354 19.1738 6.35887 18.9886V19.2355H6.79105V18.2477ZM5.18577 18.2477C5.18577 17.8978 5.41218 17.6097 5.78259 17.6097C6.13246 17.6097 6.37949 17.8773 6.37949 18.2477C6.37949 18.5975 6.13246 18.8856 5.78259 18.8856C5.41218 18.865 5.18577 18.5975 5.18577 18.2477Z" fill="black"/>
<path d="M4.36274 19.2354V19.3292H4.45649V19.2354H4.36274ZM2.88084 17.5684L2.80173 17.6188L2.87752 17.7379L2.95791 17.6218L2.88084 17.5684ZM1.64605 17.5067H1.5523V17.7949L1.72186 17.5618L1.64605 17.5067ZM1.64605 17.2597H1.7398V17.166H1.64605V17.2597ZM1.21387 17.2597V17.166H1.12012V17.2597H1.21387ZM1.21387 19.2354H1.12012V19.3292H1.21387V19.2354ZM1.64605 19.2354V19.3292H1.7398V19.2354H1.64605ZM2.55168 19.2354H2.45793V19.3292H2.55168V19.2354ZM2.98387 19.2354V19.3292H3.07762V19.2354H2.98387ZM3.8893 19.2354H3.79555V19.3292H3.8893V19.2354ZM10.7631 17.2597H10.8569V17.166H10.7631V17.2597ZM10.0635 17.2597H9.96974V17.3535H10.0635V17.2597ZM10.0635 16.6629H10.1572V16.5692H10.0635V16.6629ZM9.6313 16.6629V16.5692H9.53755V16.6629H9.6313ZM9.6313 17.2597V17.3535H9.72505V17.2597H9.6313ZM9.24027 17.2597V17.166H9.14652V17.2597H9.24027ZM9.24027 17.6507H9.14652V17.7444H9.24027V17.6507ZM9.63121 17.6507H9.72496V17.5569H9.63121V17.6507ZM10.8456 19.1326L10.892 19.214L10.9588 19.1759L10.9345 19.1029L10.8456 19.1326ZM10.722 18.7621L10.8109 18.7324L10.7721 18.616L10.67 18.6841L10.722 18.7621ZM10.0635 17.6507V17.5569H9.96974V17.6507H10.0635ZM10.7631 17.6507V17.7444H10.8569V17.6507H10.7631ZM13.912 17.5067H13.8183V17.8334L13.9915 17.5564L13.912 17.5067ZM13.912 17.2597H14.0058V17.166H13.912V17.2597ZM13.4798 17.2597V17.166H13.3861V17.2597H13.4798ZM13.4798 19.2354H13.3861V19.3292H13.4798V19.2354ZM13.912 19.2354V19.3292H14.0058V19.2354H13.912ZM14.5911 17.6508L14.5685 17.7417L14.6552 17.7634L14.6809 17.6777L14.5911 17.6508ZM14.7146 17.2392L14.8044 17.2661L14.8326 17.1721L14.7374 17.1483L14.7146 17.2392ZM8.8904 17.4244L8.97325 17.4683L9.012 17.3951L8.94416 17.3476L8.8904 17.4244ZM7.94371 18.4329L7.93043 18.5258L7.93436 18.5262L7.94371 18.4329ZM8.14949 18.4535L8.16628 18.361L8.15884 18.3603L8.14949 18.4535ZM7.38796 18.7005L7.44242 18.6242L7.36129 18.5663L7.30846 18.6508L7.38796 18.7005ZM7.18218 19.0297L7.10268 18.98L7.05636 19.0541L7.12705 19.1055L7.18218 19.0297ZM8.25234 18.0419L8.26625 17.9491L8.26169 17.9486L8.25234 18.0419ZM8.04656 18.0213L8.03618 18.1144L8.03721 18.1145L8.04656 18.0213ZM8.70515 17.7743L8.6632 17.8582L8.74513 17.8992L8.788 17.8182L8.70515 17.7743ZM19.8597 17.5068H19.766V17.8335L19.9392 17.5565L19.8597 17.5068ZM19.8597 17.2598H19.9535V17.1661H19.8597V17.2598ZM19.4275 17.2598V17.1661H19.3338V17.2598H19.4275ZM19.4275 19.2355H19.3338V19.3293H19.4275V19.2355ZM19.8597 19.2355V19.3293H19.9535V19.2355H19.8597ZM20.5389 17.6508L20.5162 17.7418L20.603 17.7635L20.6287 17.6778L20.5389 17.6508ZM20.6624 17.2393L20.7522 17.2662L20.7804 17.1722L20.6852 17.1483L20.6624 17.2393ZM16.608 19.0503L16.6666 19.1236L16.73 19.0728L16.6888 19.0028L16.608 19.0503ZM16.4022 18.7005L16.483 18.6529L16.4299 18.5626L16.346 18.6255L16.4022 18.7005ZM15.8877 17.6097V17.5158L15.8822 17.5161L15.8877 17.6097ZM16.4022 17.7949L16.3459 17.8699L16.4298 17.9329L16.483 17.8425L16.4022 17.7949ZM16.608 17.4451L16.6888 17.4926L16.73 17.4226L16.6666 17.3719L16.608 17.4451ZM18.8513 17.2598H18.9451V17.1661H18.8513V17.2598ZM18.4191 17.2598V17.1661H18.3254V17.2598H18.4191ZM18.4191 17.5068L18.3452 17.5643L18.5129 17.7799V17.5068H18.4191ZM18.4191 18.9886H18.5129V18.6789L18.3411 18.9366L18.4191 18.9886ZM18.4191 19.2355H18.3254V19.3293H18.4191V19.2355ZM18.8513 19.2355V19.3293H18.9451V19.2355H18.8513ZM17.8634 18.8856L17.8582 18.9794H17.8634V18.8856ZM12.9242 19.0092L12.9835 19.0818L13.0494 19.0279L13.0022 18.9572L12.9242 19.0092ZM12.7183 18.7005L12.7963 18.6485L12.7413 18.566L12.6621 18.6255L12.7183 18.7005ZM11.5452 18.4328V18.3391H11.4335L11.4529 18.4491L11.5452 18.4328ZM13.0065 18.4328V18.5266H13.1002V18.4328H13.0065ZM13.0065 18.2683L12.9127 18.2653V18.2683H13.0065ZM12.5947 18.0625V18.1563H12.7018L12.6877 18.0501L12.5947 18.0625ZM11.5657 18.0625L11.4731 18.0483L11.4565 18.1563H11.5657V18.0625ZM22.8232 16.4778H22.917V16.384H22.8232V16.4778ZM22.3911 16.4778V16.384H22.2973V16.4778H22.3911ZM22.3911 17.5068L22.3171 17.5643L22.4848 17.7799V17.5068H22.3911ZM22.3911 18.9886H22.4848V18.6789L22.313 18.9366L22.3911 18.9886ZM22.3911 19.2355H22.2973V19.3293H22.3911V19.2355ZM22.8232 19.2355V19.3293H22.917V19.2355H22.8232ZM21.8354 18.8856L21.8302 18.9794H21.8354V18.8856ZM6.79105 17.2598H6.8848V17.1661H6.79105V17.2598ZM6.35887 17.2598V17.1661H6.26512V17.2598H6.35887ZM6.35887 17.5068L6.28488 17.5643L6.45262 17.7799V17.5068H6.35887ZM6.35887 18.9886H6.45262V18.6789L6.28086 18.9366L6.35887 18.9886ZM6.35887 19.2355H6.26512V19.3293H6.35887V19.2355ZM6.79105 19.2355V19.3293H6.8848V19.2355H6.79105ZM5.78259 18.8856L5.77737 18.9794H5.78259V18.8856ZM4.36274 19.2354H4.45649V18.0006H4.36274H4.26899V19.2354H4.36274ZM4.36274 18.0006H4.45649C4.45649 17.7449 4.37834 17.5239 4.22381 17.3664C4.06901 17.2086 3.84746 17.1248 3.58059 17.1248V17.2186V17.3123C3.80768 17.3123 3.97721 17.3828 4.08999 17.4977C4.20305 17.6129 4.26899 17.7829 4.26899 18.0006H4.36274ZM3.58059 17.2186V17.1248C3.31221 17.1248 3.01123 17.2154 2.80376 17.5151L2.88084 17.5684L2.95791 17.6218C3.12094 17.3863 3.35508 17.3123 3.58059 17.3123V17.2186ZM2.88084 17.5684L2.95994 17.5181C2.88104 17.3941 2.78266 17.2944 2.65839 17.2264C2.53417 17.1583 2.38948 17.1248 2.22234 17.1248V17.2186V17.3123C2.36391 17.3123 2.47647 17.3405 2.56832 17.3908C2.66012 17.4411 2.73664 17.5164 2.80173 17.6188L2.88084 17.5684ZM2.22234 17.2186V17.1248C1.99387 17.1248 1.75655 17.1954 1.57025 17.4515L1.64605 17.5067L1.72186 17.5618C1.865 17.3651 2.03905 17.3123 2.22234 17.3123V17.2186ZM1.64605 17.5067H1.7398V17.2597H1.64605H1.5523V17.5067H1.64605ZM1.64605 17.2597V17.166H1.21387V17.2597V17.3535H1.64605V17.2597ZM1.21387 17.2597H1.12012V19.2354H1.21387H1.30762V17.2597H1.21387ZM1.21387 19.2354V19.3292H1.64605V19.2354V19.1417H1.21387V19.2354ZM1.64605 19.2354H1.7398V18.1446H1.64605H1.5523V19.2354H1.64605ZM1.64605 18.1446H1.7398C1.7398 17.9856 1.78174 17.8836 1.842 17.8215C1.90192 17.7597 1.993 17.7239 2.11949 17.7239V17.6301V17.5364C1.9578 17.5364 1.81215 17.5829 1.7074 17.6909C1.60299 17.7986 1.5523 17.9539 1.5523 18.1446H1.64605ZM2.11949 17.6301V17.7239C2.24215 17.7239 2.32083 17.7623 2.37122 17.8235C2.4242 17.8878 2.45793 17.9918 2.45793 18.1446H2.55168H2.64543C2.64543 17.9683 2.60707 17.8149 2.51595 17.7043C2.42225 17.5905 2.28483 17.5364 2.11949 17.5364V17.6301ZM2.55168 18.1446H2.45793V19.2354H2.55168H2.64543V18.1446H2.55168ZM2.55168 19.2354V19.3292H2.98387V19.2354V19.1417H2.55168V19.2354ZM2.98387 19.2354H3.07762V18.1446H2.98387H2.89012V19.2354H2.98387ZM2.98387 18.1446H3.07762C3.07762 17.9883 3.12318 17.8858 3.18646 17.8225C3.25004 17.7589 3.34243 17.7239 3.45712 17.7239V17.6301V17.5364C3.30424 17.5364 3.16 17.5837 3.05385 17.6899C2.9474 17.7964 2.89012 17.9512 2.89012 18.1446H2.98387ZM3.45712 17.6301V17.7239C3.57989 17.7239 3.65855 17.7623 3.70891 17.8235C3.76186 17.8878 3.79555 17.9917 3.79555 18.1446H3.8893H3.98305C3.98305 17.9683 3.94475 17.8149 3.85365 17.7043C3.75997 17.5905 3.62254 17.5364 3.45712 17.5364V17.6301ZM3.8893 18.1446H3.79555V19.2354H3.8893H3.98305V18.1446H3.8893ZM3.8893 19.2354V19.3292H4.36274V19.2354V19.1417H3.8893V19.2354ZM10.7631 17.2597V17.166H10.0635V17.2597V17.3535H10.7631V17.2597ZM10.0635 17.2597H10.1572V16.6629H10.0635H9.96974V17.2597H10.0635ZM10.0635 16.6629V16.5692H9.6313V16.6629V16.7567H10.0635V16.6629ZM9.6313 16.6629H9.53755V17.2597H9.6313H9.72505V16.6629H9.6313ZM9.6313 17.2597V17.166H9.24027V17.2597V17.3535H9.6313V17.2597ZM9.24027 17.2597H9.14652V17.6507H9.24027H9.33402V17.2597H9.24027ZM9.24027 17.6507V17.7444H9.63121V17.6507V17.5569H9.24027V17.6507ZM9.63121 17.6507H9.53746V18.5563H9.63121H9.72496V17.6507H9.63121ZM9.63121 18.5563H9.53746C9.53746 18.7929 9.58546 18.9999 9.71503 19.148C9.84683 19.2986 10.047 19.3703 10.3104 19.3703V19.2766V19.1828C10.0799 19.1828 9.94045 19.1208 9.85613 19.0245C9.76958 18.9256 9.72496 18.7724 9.72496 18.5563H9.63121ZM10.3104 19.2766V19.3703C10.5134 19.3703 10.735 19.3036 10.892 19.214L10.8456 19.1326L10.7991 19.0511C10.6677 19.1261 10.4779 19.1828 10.3104 19.1828V19.2766ZM10.8456 19.1326L10.9345 19.1029L10.8109 18.7324L10.722 18.7621L10.6331 18.7917L10.7566 19.1622L10.8456 19.1326ZM10.722 18.7621L10.67 18.6841C10.5676 18.7523 10.4444 18.7713 10.3516 18.7713V18.865V18.9588C10.4647 18.9588 10.6294 18.9365 10.774 18.8401L10.722 18.7621ZM10.3516 18.865V18.7713C10.2681 18.7713 10.2266 18.7471 10.2029 18.7182C10.1763 18.6856 10.1572 18.6286 10.1572 18.5357H10.0635H9.96974C9.96974 18.6485 9.99189 18.7563 10.0578 18.8369C10.1268 18.9212 10.2292 18.9588 10.3516 18.9588V18.865ZM10.0635 18.5357H10.1572V17.6507H10.0635H9.96974V18.5357H10.0635ZM10.0635 17.6507V17.7444H10.7631V17.6507V17.5569H10.0635V17.6507ZM10.7631 17.6507H10.8569V17.2597H10.7631H10.6694V17.6507H10.7631ZM14.4265 17.2185V17.1247C14.1419 17.1247 13.9495 17.2698 13.8325 17.457L13.912 17.5067L13.9915 17.5564C14.0804 17.4142 14.2173 17.3122 14.4265 17.3122V17.2185ZM13.912 17.5067H14.0058V17.2597H13.912H13.8183V17.5067H13.912ZM13.912 17.2597V17.166H13.4798V17.2597V17.3535H13.912V17.2597ZM13.4798 17.2597H13.3861V19.2354H13.4798H13.5736V17.2597H13.4798ZM13.4798 19.2354V19.3292H13.912V19.2354V19.1417H13.4798V19.2354ZM13.912 19.2354H14.0058V18.1241H13.912H13.8183V19.2354H13.912ZM13.912 18.1241H14.0058C14.0058 17.9713 14.0394 17.8665 14.0909 17.8017C14.1396 17.7403 14.2134 17.7033 14.3236 17.7033V17.6096V17.5158C14.1663 17.5158 14.0342 17.5715 13.944 17.6851C13.8566 17.7952 13.8183 17.9476 13.8183 18.1241H13.912ZM14.3236 17.6096V17.7033C14.3938 17.7033 14.4874 17.7215 14.5685 17.7417L14.5911 17.6508L14.6138 17.5598C14.5303 17.5389 14.418 17.5158 14.3236 17.5158V17.6096ZM14.5911 17.6508L14.6809 17.6777L14.8044 17.2661L14.7146 17.2392L14.6248 17.2123L14.5014 17.6238L14.5911 17.6508ZM14.7146 17.2392L14.7374 17.1483C14.6414 17.1242 14.5047 17.1248 14.4265 17.1248V17.2186V17.3123C14.513 17.3123 14.6232 17.3129 14.6918 17.3301L14.7146 17.2392ZM8.8904 17.4244L8.94416 17.3476C8.71628 17.1881 8.40629 17.1249 8.08771 17.1249V17.2187V17.3124C8.38657 17.3124 8.65277 17.3726 8.83664 17.5012L8.8904 17.4244ZM8.08771 17.2187V17.1249C7.82625 17.1249 7.59854 17.1902 7.43385 17.3167C7.26677 17.4449 7.17084 17.6319 7.17084 17.8566H7.26459H7.35834C7.35834 17.6903 7.42703 17.5583 7.54804 17.4654C7.67144 17.3706 7.8553 17.3124 8.08771 17.3124V17.2187ZM7.26459 17.8566H7.17084C7.17084 18.0482 7.24427 18.2038 7.38254 18.3175C7.51687 18.428 7.70576 18.4936 7.93044 18.5257L7.94371 18.4329L7.95698 18.3401C7.74947 18.3104 7.5988 18.2526 7.50162 18.1727C7.40837 18.096 7.35834 17.9944 7.35834 17.8566H7.26459ZM7.94371 18.4329L7.93436 18.5262L8.14014 18.5468L8.14949 18.4535L8.15884 18.3603L7.95306 18.3396L7.94371 18.4329ZM8.14949 18.4535L8.13276 18.5458C8.24317 18.5658 8.31805 18.5893 8.3632 18.6148C8.40626 18.6392 8.40562 18.6546 8.40562 18.6593H8.49937H8.59312C8.59312 18.5611 8.53074 18.4942 8.45546 18.4516C8.38228 18.4102 8.28222 18.3823 8.16622 18.3613L8.14949 18.4535ZM8.49937 18.6593H8.40562C8.40562 18.6893 8.39061 18.7236 8.33481 18.7552C8.27665 18.7882 8.18125 18.8125 8.04656 18.8125V18.9063V19C8.20005 19 8.33105 18.9729 8.42725 18.9183C8.52581 18.8625 8.59312 18.7734 8.59312 18.6593H8.49937ZM8.04656 18.9063V18.8125C7.78114 18.8125 7.57348 18.7177 7.44242 18.6242L7.38796 18.7005L7.3335 18.7768C7.49063 18.8889 7.7356 19 8.04656 19V18.9063ZM7.38796 18.7005L7.30846 18.6508L7.10268 18.98L7.18218 19.0297L7.26168 19.0794L7.46746 18.7502L7.38796 18.7005ZM7.18218 19.0297L7.12705 19.1055C7.3731 19.2845 7.7025 19.3704 8.02593 19.3704V19.2767V19.1829C7.73211 19.1829 7.44408 19.1042 7.23731 18.9539L7.18218 19.0297ZM8.02593 19.2767V19.3704C8.32735 19.3704 8.57518 19.3006 8.75028 19.1722C8.92784 19.042 9.02531 18.8549 9.02531 18.6387H8.93156H8.83781C8.83781 18.793 8.7706 18.9248 8.63942 19.021C8.50577 19.119 8.30079 19.1829 8.02593 19.1829V19.2767ZM8.93156 18.6387H9.02531C9.02531 18.4363 8.94631 18.2758 8.80602 18.1599C8.66946 18.0471 8.48089 17.9813 8.26623 17.9492L8.25234 18.0419L8.23844 18.1346C8.43543 18.1641 8.58648 18.2218 8.68661 18.3045C8.78302 18.3841 8.83781 18.4912 8.83781 18.6387H8.93156ZM8.25234 18.0419L8.26169 17.9486L8.0559 17.928L8.04656 18.0213L8.03721 18.1145L8.24299 18.1352L8.25234 18.0419ZM8.04656 18.0213L8.05693 17.9281C7.96543 17.9179 7.89677 17.9036 7.85289 17.8827C7.83199 17.8727 7.82194 17.8635 7.81729 17.8574C7.81376 17.8528 7.81105 17.8472 7.81105 17.8361H7.7173H7.62355C7.62355 17.8868 7.63885 17.9326 7.66811 17.971C7.69625 18.008 7.73378 18.0335 7.77203 18.0518C7.84647 18.0874 7.94243 18.104 8.03618 18.1144L8.04656 18.0213ZM7.7173 17.8361H7.81105C7.81105 17.8014 7.82575 17.7733 7.86585 17.7492C7.91017 17.7226 7.98384 17.7034 8.08771 17.7034V17.6097V17.5159C7.96517 17.5159 7.85364 17.5379 7.76936 17.5885C7.68086 17.6416 7.62355 17.7267 7.62355 17.8361H7.7173ZM8.08771 17.6097V17.7034C8.3127 17.7034 8.54381 17.7984 8.6632 17.8582L8.70515 17.7743L8.7471 17.6905C8.61955 17.6267 8.35679 17.5159 8.08771 17.5159V17.6097ZM8.70515 17.7743L8.788 17.8182L8.97325 17.4683L8.8904 17.4244L8.80755 17.3806L8.6223 17.7304L8.70515 17.7743ZM20.3743 17.2187V17.1249C20.0896 17.1249 19.8973 17.2699 19.7802 17.4571L19.8597 17.5068L19.9392 17.5565C20.028 17.4144 20.1649 17.3124 20.3743 17.3124V17.2187ZM19.8597 17.5068H19.9535V17.2598H19.8597H19.766V17.5068H19.8597ZM19.8597 17.2598V17.1661H19.4275V17.2598V17.3536H19.8597V17.2598ZM19.4275 17.2598H19.3338V19.2355H19.4275H19.5213V17.2598H19.4275ZM19.4275 19.2355V19.3293H19.8597V19.2355V19.1418H19.4275V19.2355ZM19.8597 19.2355H19.9535V18.1242H19.8597H19.766V19.2355H19.8597ZM19.8597 18.1242H19.9535C19.9535 17.9714 19.9871 17.8666 20.0386 17.8018C20.0874 17.7404 20.1611 17.7034 20.2713 17.7034V17.6097V17.5159C20.114 17.5159 19.9819 17.5716 19.8918 17.6852C19.8043 17.7953 19.766 17.9477 19.766 18.1242H19.8597ZM20.2713 17.6097V17.7034C20.3416 17.7034 20.4352 17.7216 20.5162 17.7418L20.5389 17.6508L20.5616 17.5599C20.4781 17.539 20.3658 17.5159 20.2713 17.5159V17.6097ZM20.5389 17.6508L20.6287 17.6778L20.7522 17.2662L20.6624 17.2393L20.5726 17.2123L20.4491 17.6239L20.5389 17.6508ZM20.6624 17.2393L20.6852 17.1483C20.5892 17.1243 20.4525 17.1249 20.3743 17.1249V17.2187V17.3124C20.4608 17.3124 20.571 17.313 20.6396 17.3302L20.6624 17.2393ZM14.8587 18.2477H14.765C14.765 18.5681 14.8758 18.8501 15.078 19.0523C15.2803 19.2546 15.5675 19.3704 15.9083 19.3704V19.2767V19.1829C15.6111 19.1829 15.3735 19.0827 15.2105 18.9197C15.0474 18.7565 14.9525 18.5241 14.9525 18.2477H14.8587ZM15.9083 19.2767V19.3704C16.2137 19.3704 16.4412 19.3038 16.6666 19.1236L16.608 19.0503L16.5494 18.9771C16.3632 19.1261 16.1792 19.1829 15.9083 19.1829V19.2767ZM16.608 19.0503L16.6888 19.0028L16.483 18.6529L16.4022 18.7005L16.3214 18.748L16.5272 19.0979L16.608 19.0503ZM16.4022 18.7005L16.346 18.6255C16.1946 18.739 16.0493 18.7919 15.8877 18.7919V18.8856V18.9794C16.0966 18.9794 16.2806 18.9089 16.4585 18.7755L16.4022 18.7005ZM15.8877 18.8856V18.7919C15.7356 18.7919 15.6119 18.7387 15.526 18.6486C15.4398 18.5582 15.3846 18.4232 15.3846 18.2477H15.2909H15.1971C15.1971 18.4631 15.2655 18.6471 15.3903 18.778C15.5153 18.9091 15.69 18.9794 15.8877 18.9794V18.8856ZM15.2909 18.2477H15.3846C15.3846 18.084 15.4388 17.9536 15.526 17.8622C15.6133 17.7706 15.7393 17.7123 15.8932 17.7033L15.8877 17.6097L15.8822 17.5161C15.6863 17.5276 15.5139 17.6031 15.3902 17.7328C15.2665 17.8626 15.1971 18.041 15.1971 18.2477H15.2909ZM15.8877 17.6097V17.7034C16.0493 17.7034 16.1946 17.7563 16.3459 17.8699L16.4022 17.7949L16.4585 17.72C16.2806 17.5864 16.0966 17.5159 15.8877 17.5159V17.6097ZM16.4022 17.7949L16.483 17.8425L16.6888 17.4926L16.608 17.4451L16.5272 17.3975L16.3214 17.7474L16.4022 17.7949ZM16.608 17.4451L16.6666 17.3719C16.4413 17.1915 16.2137 17.1249 15.9083 17.1249V17.2187V17.3124C16.1792 17.3124 16.3632 17.3692 16.5494 17.5183L16.608 17.4451ZM15.9083 17.2187V17.1249C15.5675 17.1249 15.2803 17.2408 15.078 17.4431C14.8758 17.6452 14.765 17.9273 14.765 18.2477H14.8587H14.9525C14.9525 17.9712 15.0474 17.7388 15.2105 17.5756C15.3735 17.4126 15.6111 17.3124 15.9083 17.3124V17.2187ZM18.8513 18.2477H18.9451V17.2598H18.8513H18.7576V18.2477H18.8513ZM18.8513 17.2598V17.1661H18.4191V17.2598V17.3536H18.8513V17.2598ZM18.4191 17.2598H18.3254V17.5068H18.4191H18.5129V17.2598H18.4191ZM18.4191 17.5068L18.4931 17.4492C18.3303 17.24 18.0966 17.1249 17.8017 17.1249V17.2187V17.3124C18.0419 17.3124 18.2198 17.4032 18.3452 17.5643L18.4191 17.5068ZM17.8017 17.2187V17.1249C17.1918 17.1249 16.7201 17.6016 16.7201 18.2477H16.8139H16.9076C16.9076 17.7001 17.3003 17.3124 17.8017 17.3124V17.2187ZM16.8139 18.2477H16.7201C16.7201 18.8937 17.1918 19.3704 17.8017 19.3704V19.2767V19.1829C17.3003 19.1829 16.9076 18.7952 16.9076 18.2477H16.8139ZM17.8017 19.2767V19.3704C18.114 19.3704 18.3527 19.2573 18.4972 19.0406L18.4191 18.9886L18.3411 18.9366C18.2387 19.0903 18.0656 19.1829 17.8017 19.1829V19.2767ZM18.4191 18.9886H18.3254V19.2355H18.4191H18.5129V18.9886H18.4191ZM18.4191 19.2355V19.3293H18.8513V19.2355V19.1418H18.4191V19.2355ZM18.8513 19.2355H18.9451V18.2477H18.8513H18.7576V19.2355H18.8513ZM17.2666 18.2477H17.3603C17.3603 18.0926 17.4105 17.9562 17.4962 17.8598C17.5808 17.7645 17.7043 17.7034 17.8634 17.7034V17.6097V17.5159C17.6521 17.5159 17.4772 17.5989 17.356 17.7352C17.2359 17.8703 17.1728 18.0529 17.1728 18.2477H17.2666ZM17.8634 17.6097V17.7034C18.1554 17.7034 18.3666 17.9227 18.3666 18.2477H18.4603H18.5541C18.5541 17.8318 18.2712 17.5159 17.8634 17.5159V17.6097ZM18.4603 18.2477H18.3666C18.3666 18.5541 18.1535 18.7919 17.8634 18.7919V18.8856V18.9794C18.2731 18.9794 18.5541 18.6409 18.5541 18.2477H18.4603ZM17.8634 18.8856L17.8686 18.792C17.7057 18.783 17.5804 18.7204 17.4955 18.627C17.4101 18.5332 17.3603 18.4022 17.3603 18.2477H17.2666H17.1728C17.1728 18.443 17.2362 18.6207 17.3567 18.7532C17.4776 18.8862 17.6507 18.9677 17.8582 18.9792L17.8634 18.8856ZM12.101 17.2187V17.1249C11.7898 17.1249 11.5178 17.2365 11.3236 17.4363C11.1296 17.636 11.0193 17.9177 11.0193 18.2477H11.113H11.2068C11.2068 17.9602 11.3023 17.7274 11.4581 17.5669C11.6139 17.4066 11.8358 17.3124 12.101 17.3124V17.2187ZM11.113 18.2477H11.0193C11.0193 18.5776 11.1296 18.8596 11.3267 19.0595C11.5237 19.2595 11.8009 19.3704 12.1215 19.3704V19.2767V19.1829C11.8452 19.1829 11.6181 19.0881 11.4602 18.9279C11.3022 18.7676 11.2068 18.5351 11.2068 18.2477H11.113ZM12.1215 19.2767V19.3704C12.4267 19.3704 12.7372 19.2832 12.9835 19.0818L12.9242 19.0092L12.8648 18.9366C12.6584 19.1055 12.3925 19.1829 12.1215 19.1829V19.2767ZM12.9242 19.0092L13.0022 18.9572L12.7963 18.6485L12.7183 18.7005L12.6403 18.7525L12.8462 19.0612L12.9242 19.0092ZM12.7183 18.7005L12.6621 18.6255C12.5102 18.7394 12.3237 18.8125 12.1421 18.8125V18.9063V19C12.3721 19 12.5971 18.9085 12.7746 18.7755L12.7183 18.7005ZM12.1421 18.9063V18.8125C12.0217 18.8125 11.9081 18.7846 11.8198 18.7236C11.7337 18.6642 11.6644 18.5685 11.6375 18.4165L11.5452 18.4328L11.4529 18.4491C11.4878 18.6471 11.5832 18.7881 11.7132 18.8779C11.841 18.9662 11.995 19 12.1421 19V18.9063ZM11.5452 18.4328V18.5266H13.0065V18.4328V18.3391H11.5452V18.4328ZM13.0065 18.4328H13.1002V18.2683H13.0065H12.9127V18.4328H13.0065ZM13.0065 18.2683L13.1002 18.2713C13.1111 17.9338 13.0187 17.6466 12.8405 17.4425C12.6615 17.2376 12.4032 17.1249 12.101 17.1249V17.2187V17.3124C12.3545 17.3124 12.5593 17.4055 12.6993 17.5659C12.84 17.7271 12.9225 17.9647 12.9128 18.2653L13.0065 18.2683ZM12.1009 17.5891V17.6828C12.2146 17.6828 12.3036 17.7174 12.3685 17.7783C12.4341 17.8399 12.4834 17.9364 12.5018 18.0749L12.5947 18.0625L12.6877 18.0501C12.665 17.8799 12.6012 17.7397 12.4969 17.6417C12.392 17.5431 12.2546 17.4953 12.1009 17.4953V17.5891ZM12.5947 18.0625V17.9688H11.5657V18.0625V18.1563H12.5947V18.0625ZM11.5657 18.0625L11.6584 18.0768C11.6764 17.96 11.7249 17.8619 11.7973 17.7937C11.8687 17.7263 11.9687 17.6828 12.1009 17.6828V17.5891V17.4953C11.9244 17.4953 11.7773 17.5548 11.6687 17.6572C11.5609 17.7588 11.4963 17.8975 11.4731 18.0483L11.5657 18.0625ZM22.8232 18.2477H22.917V16.4778H22.8232H22.7295V18.2477H22.8232ZM22.8232 16.4778V16.384H22.3911V16.4778V16.5715H22.8232V16.4778ZM22.3911 16.4778H22.2973V17.5068H22.3911H22.4848V16.4778H22.3911ZM22.3911 17.5068L22.465 17.4492C22.3022 17.24 22.0685 17.1249 21.7736 17.1249V17.2187V17.3124C22.0138 17.3124 22.1917 17.4032 22.3171 17.5643L22.3911 17.5068ZM21.7736 17.2187V17.1249C21.1637 17.1249 20.692 17.6016 20.692 18.2477H20.7858H20.8795C20.8795 17.7001 21.2722 17.3124 21.7736 17.3124V17.2187ZM20.7858 18.2477H20.692C20.692 18.8937 21.1637 19.3704 21.7736 19.3704V19.2767V19.1829C21.2722 19.1829 20.8795 18.7952 20.8795 18.2477H20.7858ZM21.7736 19.2767V19.3704C22.086 19.3704 22.3246 19.2573 22.4691 19.0406L22.3911 18.9886L22.313 18.9366C22.2106 19.0903 22.0376 19.1829 21.7736 19.1829V19.2767ZM22.3911 18.9886H22.2973V19.2355H22.3911H22.4848V18.9886H22.3911ZM22.3911 19.2355V19.3293H22.8232V19.2355V19.1418H22.3911V19.2355ZM22.8232 19.2355H22.917V18.2477H22.8232H22.7295V19.2355H22.8232ZM21.2386 18.2477H21.3323C21.3323 18.0925 21.3825 17.9561 21.4681 17.8598C21.5528 17.7645 21.6762 17.7034 21.8354 17.7034V17.6097V17.5159C21.6241 17.5159 21.4491 17.5989 21.328 17.7352C21.2079 17.8703 21.1448 18.0529 21.1448 18.2477H21.2386ZM21.8354 17.6097V17.7034C22.1274 17.7034 22.3385 17.9227 22.3385 18.2477H22.4322H22.526C22.526 17.8318 22.2432 17.5159 21.8354 17.5159V17.6097ZM22.4322 18.2477H22.3385C22.3385 18.5542 22.1255 18.7919 21.8354 18.7919V18.8856V18.9794C22.2451 18.9794 22.526 18.6409 22.526 18.2477H22.4322ZM21.8354 18.8856L21.8406 18.792C21.6777 18.783 21.5523 18.7204 21.4674 18.627C21.3821 18.5332 21.3323 18.4022 21.3323 18.2477H21.2386H21.1448C21.1448 18.4429 21.2082 18.6207 21.3287 18.7532C21.4496 18.8862 21.6226 18.9677 21.8302 18.9792L21.8354 18.8856ZM6.79105 18.2477H6.8848V17.2598H6.79105H6.6973V18.2477H6.79105ZM6.79105 17.2598V17.1661H6.35887V17.2598V17.3536H6.79105V17.2598ZM6.35887 17.2598H6.26512V17.5068H6.35887H6.45262V17.2598H6.35887ZM6.35887 17.5068L6.43285 17.4492C6.27004 17.24 6.03632 17.1249 5.74143 17.1249V17.2187V17.3124C5.98166 17.3124 6.1595 17.4032 6.28488 17.5643L6.35887 17.5068ZM5.74143 17.2187V17.1249C5.13149 17.1249 4.65984 17.6016 4.65984 18.2477H4.75359H4.84734C4.84734 17.7001 5.24006 17.3124 5.74143 17.3124V17.2187ZM4.75359 18.2477H4.65984C4.65984 18.8937 5.13149 19.3704 5.74143 19.3704V19.2767V19.1829C5.24006 19.1829 4.84734 18.7952 4.84734 18.2477H4.75359ZM5.74143 19.2767V19.3704C6.05384 19.3704 6.29241 19.2573 6.43688 19.0406L6.35887 18.9886L6.28086 18.9366C6.17838 19.0903 6.00539 19.1829 5.74143 19.1829V19.2767ZM6.35887 18.9886H6.26512V19.2355H6.35887H6.45262V18.9886H6.35887ZM6.35887 19.2355V19.3293H6.79105V19.2355V19.1418H6.35887V19.2355ZM6.79105 19.2355H6.8848V18.2477H6.79105H6.6973V19.2355H6.79105ZM5.18577 18.2477H5.27952C5.27952 18.0926 5.32965 17.9562 5.41535 17.8598C5.5 17.7645 5.62346 17.7034 5.78259 17.7034V17.6097V17.5159C5.5713 17.5159 5.39636 17.5989 5.27521 17.7352C5.1551 17.8703 5.09202 18.0529 5.09202 18.2477H5.18577ZM5.78259 17.6097V17.7034C6.07457 17.7034 6.28574 17.9227 6.28574 18.2477H6.37949H6.47324C6.47324 17.8318 6.19035 17.5159 5.78259 17.5159V17.6097ZM6.37949 18.2477H6.28574C6.28574 18.5541 6.07268 18.7919 5.78259 18.7919V18.8856V18.9794C6.19224 18.9794 6.47324 18.6409 6.47324 18.2477H6.37949ZM5.78259 18.8856L5.7878 18.792C5.62491 18.783 5.49954 18.7204 5.41464 18.627C5.32932 18.5332 5.27952 18.4022 5.27952 18.2477H5.18577H5.09202C5.09202 18.443 5.15543 18.6207 5.27591 18.7532C5.39682 18.8862 5.56985 18.9677 5.77737 18.9792L5.78259 18.8856Z" fill="#C9A040" mask="url(#path-1-inside-1_4085_9538)"/>
<path d="M15.1826 2.30341V13.8581H8.79395V2.30341H15.1826Z" fill="#FF5F00" stroke="#C9A040" stroke-width="0.09375"/>
<path d="M9.15834 8.08084C9.15834 5.71412 10.2697 3.61488 11.9778 2.25653C10.7225 1.26869 9.13781 0.671875 7.40906 0.671875C3.31341 0.671875 0 3.98528 0 8.08084C0 12.1764 3.31341 15.4898 7.40897 15.4898C9.13772 15.4898 10.7224 14.893 11.9778 13.9051C10.2697 12.5673 9.15834 10.4476 9.15834 8.08084Z" fill="#EB001B"/>
<path d="M23.9758 8.08084C23.9758 12.1763 20.6624 15.4898 16.5669 15.4898C14.8381 15.4898 13.2535 14.893 11.998 13.9051C13.7268 12.5468 14.8176 10.4476 14.8176 8.08084C14.8176 5.71412 13.7062 3.61488 11.998 2.25653C13.2534 1.26869 14.8381 0.671875 16.5669 0.671875C20.6624 0.671875 23.9758 4.00591 23.9758 8.08084Z" fill="#F79E1B"/>
</g>
<defs>
<clipPath id="clip0_4085_9538">
<rect width="24" height="18.6562" fill="white" transform="translate(0 0.671875)"/>
</clipPath>
</defs>
</svg>
