<svg width="49" height="49" viewBox="0 0 49 49" fill="none" xmlns="http://www.w3.org/2000/svg">
<path d="M39.3333 35.4194C39.3333 38.1808 37.0947 40.4194 34.3333 40.4194C31.5719 40.4194 29.3333 38.1808 29.3333 35.4194C29.3333 32.658 31.5719 30.4194 34.3333 30.4194C37.0947 30.4194 39.3333 32.658 39.3333 35.4194Z" stroke="#0C0C0C" stroke-width="3"/>
<path d="M19.3333 35.4194C19.3333 38.1808 17.0947 40.4194 14.3333 40.4194C11.5719 40.4194 9.33333 38.1808 9.33333 35.4194C9.33333 32.658 11.5719 30.4194 14.3333 30.4194C17.0947 30.4194 19.3333 32.658 19.3333 35.4194Z" stroke="#0C0C0C" stroke-width="3"/>
<path d="M29.3333 35.4194H19.3333M39.3333 35.4194H40.8597C41.2995 35.4194 41.5195 35.4194 41.7043 35.3964C43.0671 35.2266 44.1405 34.1532 44.3103 32.7904C44.3333 32.6056 44.3333 32.3856 44.3333 31.9458V26.4194C44.3333 19.2397 38.5131 13.4194 31.3333 13.4194M30.3333 31.4194V14.4194C30.3333 11.591 30.3333 10.1768 29.4547 9.29811C28.5759 8.41943 27.1617 8.41943 24.3333 8.41943H10.3333C7.50491 8.41943 6.09069 8.41943 5.21201 9.29811C4.33333 10.1768 4.33333 11.591 4.33333 14.4194V30.4194C4.33333 32.2886 4.33333 33.2232 4.73525 33.9194C4.99855 34.3754 5.37727 34.7542 5.83333 35.0174C6.52949 35.4194 7.46409 35.4194 9.33333 35.4194" stroke="#0C0C0C" stroke-width="3" stroke-linecap="round" stroke-linejoin="round"/>
</svg>
