<svg width="48" height="49" viewBox="0 0 48 49" fill="none" xmlns="http://www.w3.org/2000/svg">
<path d="M8.53562 38.1088C8.98538 41.4494 11.7523 44.0664 15.1193 44.2212C17.9525 44.3514 20.8306 44.4194 24 44.4194C27.1694 44.4194 30.0474 44.3514 32.8806 44.2212C36.2478 44.0664 39.0146 41.4494 39.4644 38.1088C39.758 35.9288 40 33.6946 40 31.4194C40 29.1442 39.758 26.91 39.4644 24.73C39.0146 21.3894 36.2478 18.7724 32.8806 18.6176C30.0474 18.4874 27.1694 18.4194 24 18.4194C20.8306 18.4194 17.9525 18.4874 15.1193 18.6176C11.7523 18.7724 8.98538 21.3894 8.53562 24.73C8.24208 26.91 8 29.1442 8 31.4194C8 33.6946 8.24208 35.9288 8.53562 38.1088Z" stroke="#0C0C0C" stroke-width="3"/>
<path d="M15 18.4194V13.4194C15 8.44887 19.0294 4.41943 24 4.41943C28.9706 4.41943 33 8.44887 33 13.4194V18.4194" stroke="#0C0C0C" stroke-width="3" stroke-linecap="round" stroke-linejoin="round"/>
<path d="M23.9922 31.4194H24.0102" stroke="#0C0C0C" stroke-width="4" stroke-linecap="round" stroke-linejoin="round"/>
</svg>
