<svg width="14" height="15" viewBox="0 0 14 15" fill="none" xmlns="http://www.w3.org/2000/svg">
<path d="M8.48509 1.71571L9.65829 4.08151C9.81829 4.41084 10.2449 4.72673 10.6049 4.78721L12.7313 5.14343C14.0912 5.37195 14.4112 6.36666 13.4312 7.34793L11.7781 9.01473C11.4981 9.29699 11.3448 9.8414 11.4314 10.2313L11.9048 12.2946C12.278 13.9278 11.4181 14.5596 9.98495 13.706L7.99182 12.5164C7.63189 12.3013 7.03862 12.3013 6.67195 12.5164L4.67887 13.706C3.25235 14.5596 2.38579 13.9211 2.75908 12.2946L3.23236 10.2313C3.31901 9.8414 3.1657 9.29699 2.88573 9.01473L1.23258 7.34793C0.259353 6.36666 0.572653 5.37195 1.9325 5.14343L4.05893 4.78721C4.41223 4.72673 4.83885 4.41084 4.99883 4.08151L6.17202 1.71571C6.81195 0.432001 7.85182 0.432001 8.48509 1.71571Z" fill="#E49D12"/>
</svg>
