<svg width="49" height="49" viewBox="0 0 49 49" fill="none" xmlns="http://www.w3.org/2000/svg">
<path d="M31.6667 22.4194C31.6667 18.5534 28.5327 15.4194 24.6667 15.4194C20.8007 15.4194 17.6667 18.5534 17.6667 22.4194C17.6667 26.2854 20.8007 29.4194 24.6667 29.4194C28.5327 29.4194 31.6667 26.2854 31.6667 22.4194Z" stroke="#141B34" stroke-width="3" stroke-linecap="round" stroke-linejoin="round"/>
<path d="M31.6321 23.1192C32.2761 23.3144 32.9591 23.4194 33.6667 23.4194C37.5327 23.4194 40.6667 20.2854 40.6667 16.4194C40.6667 12.5534 37.5327 9.41943 33.6667 9.41943C30.0369 9.41943 27.0523 12.1822 26.7013 15.7197" stroke="#141B34" stroke-width="3" stroke-linecap="round" stroke-linejoin="round"/>
<path d="M22.6321 15.7197C22.2811 12.1822 19.2966 9.41943 15.6667 9.41943C11.8007 9.41943 8.66675 12.5534 8.66675 16.4194C8.66675 20.2854 11.8007 23.4194 15.6667 23.4194C16.3744 23.4194 17.0574 23.3144 17.7013 23.1192" stroke="#141B34" stroke-width="3" stroke-linecap="round" stroke-linejoin="round"/>
<path d="M44.6667 33.4194C44.6667 27.8966 39.7419 23.4194 33.6667 23.4194" stroke="#141B34" stroke-width="3" stroke-linecap="round" stroke-linejoin="round"/>
<path d="M35.6667 39.4194C35.6667 33.8966 30.7419 29.4194 24.6667 29.4194C18.5916 29.4194 13.6667 33.8966 13.6667 39.4194" stroke="#141B34" stroke-width="3" stroke-linecap="round" stroke-linejoin="round"/>
<path d="M15.6667 23.4194C9.59161 23.4194 4.66675 27.8966 4.66675 33.4194" stroke="#141B34" stroke-width="3" stroke-linecap="round" stroke-linejoin="round"/>
</svg>
