<svg width="32" height="20" viewBox="0 0 32 20" fill="none" xmlns="http://www.w3.org/2000/svg">
<g clip-path="url(#clip0_4085_9546)" filter="url(#filter0_d_4085_9546)">
<path d="M13.1122 0.793125L9.97 8.28919H7.92006L6.37375 2.30663C6.28 1.93903 6.19853 1.80375 5.91325 1.64831C5.44694 1.395 4.67687 1.15809 4 1.01072L4.04566 0.793125H7.34603C7.76603 0.793125 8.14422 1.07278 8.24041 1.557L9.05744 5.89509L11.0746 0.793125H13.1122ZM15.8835 0.793125L14.2801 8.28919H12.3406L13.9442 0.793125H15.8835ZM21.1443 5.84175C21.1524 3.86372 18.4093 3.75394 18.4272 2.87016C18.4338 2.60147 18.6897 2.31544 19.2499 2.24231C19.5274 2.20641 20.2941 2.17781 21.1625 2.57794L21.5023 0.987375C21.0357 0.818625 20.4352 0.65625 19.6883 0.65625C17.7711 0.65625 16.4225 1.67456 16.4117 3.13387C16.3992 4.21331 17.375 4.81491 18.1089 5.17444C18.8648 5.54156 19.1183 5.77753 19.1148 6.10566C19.1094 6.60862 18.5111 6.83128 17.9549 6.83953C16.9795 6.855 16.4141 6.57591 15.9631 6.36581L15.611 8.00906C16.0648 8.217 16.901 8.39766 17.7672 8.40684C19.8053 8.40684 21.1383 7.40016 21.1443 5.84175ZM26.2068 8.28928H28L26.4334 0.793125H24.779C24.4059 0.793125 24.0923 1.00969 23.9532 1.34259L21.0432 8.28919H23.0797L23.4837 7.16944H25.9718L26.2068 8.28928ZM24.0422 5.63344L25.0633 2.81841L25.6499 5.63344H24.0422ZM18.3656 10.3526H17.5775V11.086H18.459V11.3065H17.312V9.27188H18.4138V9.49237H17.5775V10.1352H18.3655L18.3656 10.3526ZM18.8661 9.16331H19.1316V11.3064H18.8661V9.16331ZM19.8016 10.6242C19.8076 10.9836 20.0341 11.1314 20.3026 11.1314C20.4929 11.1314 20.6105 11.0982 20.7073 11.056L20.7555 11.2463C20.6619 11.2884 20.499 11.3397 20.2664 11.3397C19.8167 11.3397 19.5482 11.0409 19.5482 10.6001C19.5482 10.1595 19.8076 9.81525 20.2333 9.81525C20.7133 9.81525 20.837 10.232 20.837 10.5006C20.837 10.5548 20.8339 10.594 20.8278 10.6243L19.8016 10.6242ZM20.5803 10.4341C20.5834 10.2682 20.511 10.0055 20.2121 10.0055C19.9404 10.0055 19.8257 10.25 19.8045 10.4341H20.5803ZM22.2823 11.2552C22.2129 11.2884 22.0589 11.3398 21.8627 11.3398C21.422 11.3398 21.1353 11.0409 21.1353 10.5941C21.1353 10.1443 21.443 9.81534 21.92 9.81534C22.077 9.81534 22.2158 9.85444 22.2883 9.89381L22.2281 10.096C22.1644 10.0628 22.0649 10.0265 21.92 10.0265C21.5849 10.0265 21.4039 10.2771 21.4039 10.5791C21.4039 10.9171 21.6213 11.1254 21.911 11.1254C22.062 11.1254 22.1615 11.0892 22.237 11.056L22.2823 11.2552ZM23.0274 9.49528V9.84544H23.4077V10.0476H23.0274V10.8355C23.0274 11.0168 23.0788 11.1193 23.2266 11.1193C23.299 11.1193 23.3414 11.1134 23.3807 11.1011L23.3927 11.3036C23.3414 11.3216 23.2599 11.3397 23.1572 11.3397C23.0334 11.3397 22.9338 11.2974 22.8705 11.2282C22.798 11.1465 22.7678 11.0168 22.7678 10.8447V10.0476H22.5413V9.84544H22.7678V9.57375L23.0274 9.49528ZM23.7786 10.3013C23.7786 10.1292 23.7754 9.98137 23.7665 9.84544H23.999L24.0112 10.1351H24.02C24.0866 9.93909 24.2494 9.81525 24.4275 9.81525C24.4548 9.81525 24.4759 9.81834 24.5001 9.82125V10.0719C24.4729 10.0658 24.4458 10.0658 24.4094 10.0658C24.2224 10.0658 24.0894 10.2046 24.0533 10.404C24.0471 10.445 24.044 10.4863 24.0442 10.5278V11.3066H23.7786V10.3013ZM26.1328 10.5638C26.1328 11.1042 25.7553 11.3397 25.4053 11.3397C25.0128 11.3397 24.705 11.0498 24.705 10.5881C24.705 10.102 25.0279 9.81534 25.4295 9.81534C25.849 9.81534 26.1328 10.1199 26.1328 10.5638ZM24.9766 10.5791C24.9766 10.8991 25.1577 11.1407 25.4173 11.1407C25.671 11.1407 25.861 10.902 25.861 10.573C25.861 10.3255 25.7372 10.0145 25.4233 10.0145C25.1125 10.0145 24.9766 10.3044 24.9766 10.5791ZM26.5398 10.241C26.5398 10.0871 26.5367 9.96628 26.5277 9.84562H26.7632L26.7782 10.0871H26.7843C26.8567 9.95119 27.0258 9.81544 27.2673 9.81544C27.4694 9.81544 27.7834 9.93619 27.7834 10.4371V11.3066H27.5178V10.4644C27.5178 10.2291 27.4303 10.0327 27.1798 10.0327C27.0077 10.0327 26.8717 10.1565 26.8236 10.3043C26.8114 10.3376 26.8054 10.3828 26.8054 10.4282V11.3066H26.5398V10.241Z" fill="#1A1F71"/>
</g>
<defs>
<filter id="filter0_d_4085_9546" x="0" y="0.65625" width="32" height="18.6875" filterUnits="userSpaceOnUse" color-interpolation-filters="sRGB">
<feFlood flood-opacity="0" result="BackgroundImageFix"/>
<feColorMatrix in="SourceAlpha" type="matrix" values="0 0 0 0 0 0 0 0 0 0 0 0 0 0 0 0 0 0 127 0" result="hardAlpha"/>
<feOffset dy="4"/>
<feGaussianBlur stdDeviation="2"/>
<feComposite in2="hardAlpha" operator="out"/>
<feColorMatrix type="matrix" values="0 0 0 0 0 0 0 0 0 0 0 0 0 0 0 0 0 0 0.25 0"/>
<feBlend mode="normal" in2="BackgroundImageFix" result="effect1_dropShadow_4085_9546"/>
<feBlend mode="normal" in="SourceGraphic" in2="effect1_dropShadow_4085_9546" result="shape"/>
</filter>
<clipPath id="clip0_4085_9546">
<rect width="24" height="10.6875" fill="white" transform="translate(4 0.65625)"/>
</clipPath>
</defs>
</svg>
